<?xml version="1.0" encoding="utf-8"?>
<!-- Generator: Adobe Illustrator 16.0.0, SVG Export Plug-In . SVG Version: 6.00 Build 0)  -->
<!DOCTYPE svg PUBLIC "-//W3C//DTD SVG 1.1//EN" "http://www.w3.org/Graphics/SVG/1.1/DTD/svg11.dtd">
<svg version="1.1" id="Layer_1" xmlns="http://www.w3.org/2000/svg" xmlns:xlink="http://www.w3.org/1999/xlink" x="0px" y="0px"
	 width="545.973px" height="352.482px" viewBox="0 0 545.973 352.482" enable-background="new 0 0 545.973 352.482"
	 xml:space="preserve">
<path fill="#5454FF" d="M38.395,57.243l-14.85-14.849l14.85-14.849l14.85,14.849L38.395,57.243z M27.789,42.395l10.606,10.606
	l10.606-10.606L38.395,31.788L27.789,42.395z"/>
<path fill="#5454FF" d="M520.395,338.016l-12.622-12.621l12.622-12.62l12.621,12.62L520.395,338.016z M512.015,325.395l8.38,8.379
	l8.379-8.379l-8.379-8.378L512.015,325.395z"/>
<path fill="#231F20" d="M543.826,275.395h-20v-20h20V275.395z M526.826,272.395h14v-14h-14V272.395z"/>
<path fill="#231F20" d="M29.895,96.895h-17v-17h17V96.895z M15.895,93.895h11v-11h-11V93.895z"/>
<g>
	<g>
		<polygon fill-rule="evenodd" clip-rule="evenodd" fill="#231F20" points="38.76,148.033 43.518,162.485 48.73,162.645 
			44.488,165.12 45.715,168.546 42.362,165.892 40.502,169.663 40.165,166.017 35.374,165.422 39.91,163.236 38.76,148.033 		"/>
		<path fill="#231F20" d="M40.502,169.774c-0.006,0-0.014-0.001-0.02-0.002c-0.049-0.009-0.086-0.05-0.09-0.1l-0.33-3.557
			l-4.702-0.584c-0.049-0.006-0.088-0.044-0.096-0.093c-0.008-0.048,0.017-0.096,0.062-0.118l4.468-2.152l-1.144-15.128
			c-0.004-0.056,0.034-0.106,0.089-0.117c0.055-0.018,0.109,0.021,0.127,0.074l4.733,14.379l5.134,0.156
			c0.049,0.002,0.092,0.036,0.104,0.085c0.013,0.048-0.008,0.098-0.052,0.123l-4.163,2.429l1.197,3.339
			c0.017,0.047,0,0.099-0.04,0.128c-0.041,0.029-0.095,0.027-0.134-0.003l-3.245-2.569l-1.799,3.647
			C40.583,169.751,40.544,169.774,40.502,169.774z M35.762,165.358l4.417,0.548c0.052,0.007,0.092,0.048,0.097,0.101l0.302,3.255
			l1.687-3.419c0.015-0.03,0.042-0.053,0.075-0.06c0.034-0.009,0.067,0.001,0.093,0.021l3.049,2.413l-1.097-3.06
			c-0.018-0.051,0.002-0.107,0.049-0.134l3.908-2.28l-4.825-0.147c-0.047-0.002-0.087-0.032-0.102-0.076l-4.473-13.588l1.081,14.296
			c0.003,0.045-0.021,0.088-0.063,0.108L35.762,165.358z"/>
	</g>
</g>
<g>
	<defs>
		<polygon id="SVGID_1_" points="480.006,67.7 480.006,216.31 508.803,216.31 535.028,89.297 		"/>
	</defs>
	<clipPath id="SVGID_2_">
		<use xlink:href="#SVGID_1_"  overflow="visible"/>
	</clipPath>
	<g clip-path="url(#SVGID_2_)">
		<path fill="#231F20" d="M471.801,111.185c-0.319,0-0.641-0.118-0.89-0.357c-0.146-0.141-14.789-13.962-32.783-10.316
			c-0.696,0.143-1.375-0.308-1.517-1.005c-0.141-0.694,0.309-1.373,1.004-1.514c19.344-3.921,34.444,10.371,35.078,10.983
			c0.512,0.491,0.526,1.304,0.034,1.815C472.476,111.053,472.139,111.185,471.801,111.185z"/>
		<path fill="#231F20" d="M510.469,135.249c-0.529,0-1.025-0.33-1.212-0.858c-4.831-13.681-28.409-18.843-28.646-18.895
			c-0.694-0.147-1.139-0.83-0.991-1.524c0.148-0.695,0.833-1.138,1.524-0.99c1.028,0.218,25.227,5.511,30.537,20.554
			c0.237,0.669-0.114,1.404-0.784,1.64C510.755,135.226,510.611,135.249,510.469,135.249z"/>
		
			<path fill="none" stroke="#5454FF" stroke-width="2.5" stroke-linecap="round" stroke-linejoin="round" stroke-miterlimit="10" d="
			M438.896,155.948"/>
		<path fill="#5454FF" d="M432.203,170.685c-0.187,0-0.375-0.04-0.554-0.126c-0.641-0.306-0.911-1.073-0.605-1.714l5.606-11.721
			c0.305-0.641,1.074-0.912,1.713-0.605c0.641,0.307,0.912,1.073,0.604,1.714l-5.604,11.721
			C433.142,170.415,432.682,170.685,432.203,170.685z"/>
		<path fill="#5454FF" d="M436.74,172.854c-0.186,0-0.373-0.04-0.553-0.125c-0.641-0.307-0.911-1.074-0.606-1.715l8.952-18.736
			c0.307-0.641,1.071-0.91,1.714-0.605c0.642,0.306,0.912,1.073,0.606,1.714l-8.952,18.737
			C437.68,172.585,437.22,172.854,436.74,172.854z"/>
		<path fill="#5454FF" d="M441.261,175.016c-0.183,0-0.369-0.039-0.546-0.123c-0.643-0.302-0.918-1.068-0.616-1.71l10.918-23.194
			c0.302-0.644,1.067-0.919,1.71-0.615c0.643,0.302,0.918,1.068,0.615,1.71l-10.917,23.194
			C442.207,174.743,441.744,175.016,441.261,175.016z"/>
		
			<path fill="none" stroke="#231F20" stroke-width="2.5" stroke-linecap="round" stroke-linejoin="round" stroke-miterlimit="10" d="
			M462.476,158.817"/>
		<path fill="#231F20" d="M463.617,157.238c-0.189,0-0.379-0.042-0.554-0.125l-13.486-6.449c-0.641-0.307-0.911-1.073-0.605-1.714
			l2.189-4.579c1.46-3.057,4.585-5.031,7.96-5.031c1.317,0,2.595,0.291,3.793,0.864c2.126,1.017,3.714,2.796,4.469,5.014
			c0.749,2.197,0.603,4.58-0.416,6.71l-2.189,4.58c-0.146,0.307-0.409,0.544-0.732,0.657
			C463.907,157.215,463.761,157.238,463.617,157.238z M451.845,148.898l11.166,5.34l1.635-3.42c0.728-1.52,0.834-3.214,0.304-4.771
			c-0.532-1.557-1.648-2.808-3.145-3.522c-0.851-0.407-1.753-0.613-2.685-0.613c-2.391,0-4.604,1.4-5.641,3.568L451.845,148.898z"/>
		<path fill="#231F20" d="M459.444,136.276c-0.07,0-0.143-0.007-0.214-0.019c-2.912-0.491-28.571-5.018-32.541-12.663
			c-0.729-1.403-0.757-2.892-0.082-4.304c4.65-9.726,9.43-13.873,15.984-13.873c3.292,0,7.008,1.056,11.692,3.323
			c10.958,5.304,14.258,10.201,6.32,26.804C460.388,135.997,459.933,136.276,459.444,136.276z M442.591,107.989
			c-5.417,0-9.505,3.712-13.664,12.41c-0.332,0.694-0.318,1.313,0.043,2.01c2.751,5.299,21.543,9.678,29.729,11.147
			c7.209-15.477,3.239-18.253-5.537-22.502C448.901,108.991,445.443,107.989,442.591,107.989z"/>
		<path fill="#5454FF" d="M459.259,183.621c-0.186,0-0.375-0.04-0.554-0.125c-0.641-0.307-0.911-1.074-0.605-1.715l5.604-11.722
			c0.306-0.642,1.074-0.911,1.714-0.605c0.641,0.307,0.911,1.074,0.605,1.715l-5.604,11.722
			C460.2,183.353,459.74,183.621,459.259,183.621z"/>
		<path fill="#5454FF" d="M454.722,181.452c-0.186,0-0.374-0.04-0.553-0.126c-0.641-0.307-0.912-1.074-0.604-1.714l8.962-18.731
			c0.306-0.642,1.073-0.91,1.714-0.605c0.641,0.308,0.912,1.075,0.604,1.715l-8.963,18.73
			C455.663,181.183,455.202,181.452,454.722,181.452z"/>
		<path fill="#5454FF" d="M450.201,179.29c-0.188,0-0.379-0.042-0.56-0.13c-0.64-0.31-0.905-1.079-0.596-1.718l11.2-23.06
			c0.31-0.639,1.079-0.906,1.717-0.594c0.64,0.309,0.905,1.078,0.595,1.717l-11.198,23.06
			C451.136,179.023,450.678,179.29,450.201,179.29z"/>
		<path fill="#231F20" d="M497.044,157.998C497.043,157.998,497.043,157.998,497.044,157.998
			c-9.096-0.001-28.149-16.79-28.957-17.505c-0.43-0.381-0.555-0.999-0.308-1.517c5.046-10.555,9.397-14.859,15.019-14.859
			c2.96,0,6.063,1.18,9.812,2.95c6.849,3.233,10.578,6.575,12.093,10.832c1.582,4.444,0.679,9.79-2.927,17.332
			C501.173,156.493,499.863,157.998,497.044,157.998z M470.524,139.21c5.847,5.065,20.064,16.217,26.52,16.217
			c1.587,0,2.124-0.697,2.413-1.304c3.287-6.876,4.158-11.614,2.825-15.362c-1.267-3.561-4.589-6.45-10.77-9.369
			c-3.435-1.622-6.232-2.703-8.714-2.703C478.468,126.688,474.88,130.33,470.524,139.21z"/>
		<path fill="#231F20" d="M480.876,115.525c-0.186,0-0.375-0.041-0.554-0.127l-9.075-4.338c-0.308-0.147-0.544-0.41-0.657-0.732
			c-0.113-0.321-0.095-0.675,0.052-0.982l17.356-36.299c0.147-0.309,0.41-0.544,0.731-0.657c0.321-0.115,0.676-0.095,0.982,0.052
			l9.075,4.34c0.641,0.307,0.912,1.073,0.605,1.715l-17.355,36.297C481.817,115.255,481.357,115.525,480.876,115.525z
			 M473.517,109.295l6.755,3.229l16.247-33.979l-6.756-3.23L473.517,109.295z"/>
		
			<path fill="#B7B7B7" stroke="#FFFFFF" stroke-width="2.5" stroke-linecap="round" stroke-linejoin="round" stroke-miterlimit="10" d="
			M464.387,157.146"/>
		<path fill="#231F20" d="M506.375,203.42c-0.001,0-0.001,0-0.002,0c-46.175-0.068-76.478-15.305-93.766-28.075
			c-18.787-13.877-26.509-27.56-26.828-28.136c-0.287-0.517-0.185-1.163,0.249-1.565l50.789-47.168l6.402-13.391
			c0.118-0.244,11.909-23.604,44.323-8.105c0.641,0.306,0.912,1.074,0.605,1.714c-0.307,0.642-1.074,0.911-1.715,0.605
			c-30.137-14.41-40.473,6.024-40.898,6.902l-6.504,13.604c-0.07,0.146-0.167,0.277-0.285,0.388l-50.204,46.624
			c2.006,3.212,9.959,14.939,25.709,26.545c16.816,12.391,46.192,27.153,90.914,27.481l4.021-66.958
			c0.009-0.166,0.051-0.327,0.122-0.478l6.508-13.611c0.41-0.88,9.797-21.911-20.303-36.157c-0.642-0.303-0.916-1.07-0.612-1.711
			c0.305-0.644,1.069-0.916,1.713-0.613c32.479,15.373,21.639,39.344,21.525,39.584l-6.402,13.391l-4.08,67.922
			C507.618,202.891,507.055,203.42,506.375,203.42z"/>
		<path fill="#231F20" d="M489.857,123.947c-0.26,0-0.521-0.079-0.749-0.242c-5.285-3.799-10.121-1.312-10.171-1.287
			c-0.628,0.334-1.405,0.094-1.737-0.534s-0.094-1.405,0.534-1.737c0.254-0.135,6.311-3.248,12.875,1.472
			c0.576,0.413,0.708,1.217,0.293,1.793C490.651,123.761,490.257,123.947,489.857,123.947z"/>
		<path fill="#231F20" d="M467.506,118.01c-0.603,0-1.139-0.424-1.259-1.035c-0.049-0.23-1.18-5.404-7.388-7.112
			c-0.686-0.188-1.087-0.896-0.899-1.58s0.897-1.089,1.58-0.899c7.797,2.146,9.175,8.814,9.229,9.097
			c0.135,0.697-0.321,1.372-1.019,1.507C467.669,118.002,467.587,118.01,467.506,118.01z"/>
		<path fill="#231F20" d="M414.205,161.691c-0.249,0-0.499-0.071-0.72-0.221c-0.657-0.445-16.117-11.025-19.37-22.31
			c-0.195-0.683,0.197-1.395,0.879-1.592c0.682-0.194,1.396,0.198,1.592,0.879c2.994,10.388,18.188,20.79,18.343,20.895
			c0.586,0.397,0.74,1.197,0.341,1.784C415.021,161.494,414.617,161.691,414.205,161.691z"/>
		<path fill="#231F20" d="M418.765,168.909c-0.938,0-1.847-0.207-2.698-0.614c-1.509-0.721-2.647-1.987-3.204-3.564
			c-0.557-1.576-0.466-3.276,0.255-4.786c1.036-2.163,3.254-3.562,5.653-3.562c0.938,0,1.847,0.207,2.698,0.613
			c1.51,0.722,2.646,1.988,3.204,3.564c0.557,1.577,0.466,3.276-0.256,4.786C423.382,167.511,421.165,168.909,418.765,168.909z
			 M418.771,158.954c-1.415,0-2.723,0.824-3.333,2.099c-0.425,0.89-0.479,1.893-0.15,2.822c0.328,0.929,0.998,1.676,1.888,2.101
			c0.505,0.24,1.039,0.362,1.59,0.362c1.414,0,2.723-0.824,3.333-2.101c0.425-0.89,0.479-1.891,0.15-2.82s-0.999-1.676-1.889-2.101
			C419.857,159.076,419.323,158.954,418.771,158.954z"/>
		<path fill="#231F20" d="M442.688,65.498c-0.938,0-1.847-0.205-2.698-0.613c-3.114-1.488-4.437-5.234-2.948-8.351
			c1.034-2.164,3.253-3.561,5.652-3.561c0.938,0,1.846,0.206,2.698,0.612c3.114,1.49,4.437,5.234,2.948,8.351
			C447.305,64.101,445.087,65.498,442.688,65.498z M442.694,55.545c-1.414,0-2.723,0.823-3.333,2.098
			c-0.877,1.837-0.098,4.045,1.738,4.922c0.503,0.241,1.037,0.363,1.589,0.363c1.414,0,2.723-0.825,3.332-2.101
			c0.878-1.836,0.099-4.043-1.737-4.921C443.781,55.665,443.246,55.545,442.694,55.545z"/>
		<path fill="#231F20" d="M410.842,65.654c-0.76,0-1.492-0.167-2.182-0.496c-1.219-0.583-2.139-1.606-2.59-2.881
			c-0.45-1.275-0.377-2.649,0.206-3.869c0.837-1.75,2.631-2.88,4.569-2.88c0.76,0,1.494,0.167,2.184,0.496
			c2.517,1.203,3.585,4.232,2.382,6.75C414.577,64.524,412.783,65.654,410.842,65.654z M410.846,58.1
			c-0.954,0-1.838,0.557-2.25,1.417c-0.287,0.601-0.323,1.276-0.102,1.904c0.223,0.628,0.675,1.131,1.276,1.418
			c1.212,0.583,2.75,0.023,3.321-1.173c0.592-1.239,0.065-2.729-1.173-3.321C411.58,58.182,411.219,58.1,410.846,58.1z"/>
		<path fill="#231F20" d="M421.476,96.793c-0.759,0-1.492-0.167-2.182-0.496c-1.22-0.584-2.14-1.607-2.59-2.883
			c-0.45-1.274-0.377-2.649,0.206-3.869c0.837-1.749,2.631-2.879,4.569-2.879c0.76,0,1.494,0.167,2.183,0.497
			c1.22,0.582,2.141,1.605,2.59,2.88c0.45,1.276,0.376,2.65-0.207,3.87C425.209,95.662,423.417,96.793,421.476,96.793z
			 M421.48,89.237c-0.954,0-1.838,0.556-2.25,1.417c-0.287,0.601-0.323,1.277-0.101,1.904c0.222,0.627,0.674,1.131,1.274,1.418
			c1.211,0.578,2.751,0.024,3.322-1.172c0.287-0.601,0.323-1.276,0.103-1.904c-0.223-0.628-0.675-1.132-1.275-1.418
			C422.213,89.319,421.853,89.237,421.48,89.237z"/>
		<path fill="#231F20" d="M390.45,101.632c-0.759,0-1.492-0.167-2.181-0.496c-1.22-0.584-2.14-1.607-2.59-2.883
			s-0.377-2.649,0.207-3.869c0.836-1.749,2.63-2.88,4.57-2.88c0.758,0,1.492,0.167,2.18,0.496c2.52,1.204,3.589,4.233,2.384,6.752
			C394.183,100.501,392.389,101.632,390.45,101.632z M390.457,94.075c-0.956,0-1.839,0.556-2.251,1.418
			c-0.287,0.601-0.323,1.276-0.102,1.904c0.221,0.628,0.673,1.131,1.273,1.418c1.21,0.58,2.75,0.024,3.323-1.173
			c0.286-0.6,0.322-1.275,0.102-1.904c-0.221-0.628-0.675-1.131-1.274-1.418C391.188,94.157,390.828,94.075,390.457,94.075z"/>
		<path fill="#5454FF" d="M466.118,180.938c-0.264,0-0.525-0.081-0.745-0.237c-0.298-0.212-0.492-0.543-0.532-0.906l-2.627-23.76
			c-0.079-0.706,0.431-1.342,1.136-1.419c0.699-0.093,1.342,0.43,1.419,1.136l2.47,22.327l28.446-6.486l-1.773-4.744
			c-3.205-0.704-15.863-4.042-21.633-13.831c-0.36-0.612-0.157-1.4,0.454-1.761c0.612-0.359,1.4-0.157,1.761,0.455
			c5.901,10.013,20.455,12.729,20.601,12.755c0.446,0.08,0.818,0.391,0.977,0.815l2.537,6.787c0.13,0.348,0.104,0.733-0.072,1.06
			c-0.177,0.326-0.484,0.562-0.846,0.644l-31.285,7.134C466.31,180.927,466.213,180.938,466.118,180.938z"/>
		<path fill="#231F20" d="M495.066,192.969c-9.124,0-16.979-1.588-17.443-1.684c-0.695-0.144-1.143-0.823-1-1.519
			c0.143-0.694,0.819-1.143,1.519-1c0.156,0.032,15.869,3.204,28.312,0.575c0.689-0.147,1.377,0.298,1.524,0.991
			c0.147,0.695-0.297,1.377-0.992,1.524C503.098,192.679,498.966,192.969,495.066,192.969z"/>
		<path fill="#231F20" d="M473.059,194.869L473.059,194.869c-0.938,0-1.847-0.207-2.698-0.614c-1.508-0.721-2.647-1.987-3.203-3.563
			c-0.557-1.577-0.467-3.277,0.257-4.786c1.034-2.164,3.252-3.562,5.651-3.562c0.938,0,1.845,0.207,2.697,0.614
			c3.114,1.489,4.437,5.234,2.948,8.35C477.676,193.47,475.458,194.869,473.059,194.869z M473.066,184.914
			c-1.414,0-2.723,0.824-3.334,2.1c-0.425,0.891-0.478,1.892-0.15,2.821c0.329,0.93,0.999,1.676,1.889,2.101
			c0.502,0.24,1.036,0.362,1.589,0.362c1.414,0,2.723-0.824,3.332-2.1c0.878-1.836,0.099-4.045-1.736-4.922
			C474.152,185.036,473.618,184.914,473.066,184.914z"/>
		<path fill="#5454FF" d="M429.987,163.662c-0.116,0-0.233-0.016-0.348-0.048c-0.353-0.099-0.646-0.344-0.808-0.673l-14.089-28.829
			c-0.162-0.333-0.174-0.72-0.029-1.062c0.143-0.341,0.428-0.604,0.779-0.722l6.875-2.288c0.431-0.14,0.906-0.049,1.248,0.248
			c0.112,0.099,11.385,9.707,22.862,8.027c0.703-0.11,1.355,0.382,1.46,1.085c0.103,0.702-0.382,1.355-1.084,1.458
			c-11.249,1.656-21.79-6.101-24.35-8.153l-4.807,1.6l12.812,26.213l18.93-12.097c0.597-0.381,1.394-0.207,1.775,0.392
			c0.382,0.598,0.207,1.393-0.392,1.775L430.68,163.46C430.471,163.593,430.23,163.662,429.987,163.662z"/>
	</g>
</g>
<path fill="#5454FF" d="M236.212,88.153c-0.192,0-0.388-0.036-0.577-0.113c-6.341-2.562-12.944-4.82-19.625-6.709
	c-23.408-6.62-59.357-11.878-97.677,0.672c-3.7,1.211-7.404,2.584-11.012,4.079c-0.787,0.323-1.689-0.048-2.016-0.834
	c-0.326-0.787,0.047-1.689,0.834-2.016c3.68-1.525,7.459-2.926,11.233-4.162c39.058-12.793,75.654-7.446,99.477-0.708
	c6.789,1.919,13.498,4.213,19.941,6.817c0.79,0.319,1.172,1.218,0.853,2.008C237.401,87.788,236.823,88.153,236.212,88.153z"/>
<path fill="#5454FF" d="M252.599,111.649c-0.266,0-0.535-0.068-0.781-0.213c-0.138-0.081-14.069-8.19-35.808-14.338
	c-23.409-6.619-59.358-11.874-97.677,0.672c-0.809,0.266-1.681-0.176-1.946-0.985s0.176-1.68,0.986-1.945
	c39.055-12.793,75.653-7.446,99.477-0.71c22.147,6.265,36.391,14.564,36.533,14.647c0.734,0.432,0.979,1.377,0.547,2.112
	C253.643,111.378,253.127,111.649,252.599,111.649z"/>
<path fill="#5454FF" d="M87.264,127.419c-0.53,0-1.047-0.273-1.333-0.766c-0.43-0.735-0.181-1.679,0.554-2.109
	c9.881-5.771,20.274-10.46,30.889-13.936c39.058-12.792,75.654-7.446,99.477-0.708c0.821,0.231,1.297,1.083,1.065,1.904
	c-0.232,0.82-1.088,1.294-1.904,1.064c-23.408-6.62-59.357-11.876-97.677,0.672c-10.408,3.407-20.6,8.007-30.293,13.667
	C87.795,127.352,87.528,127.419,87.264,127.419z"/>
<path fill="#5454FF" d="M87.264,143.188c-0.531,0-1.047-0.272-1.333-0.764c-0.43-0.736-0.181-1.682,0.554-2.11
	c9.885-5.772,20.278-10.461,30.889-13.936c39.055-12.791,75.653-7.445,99.477-0.71c0.821,0.232,1.297,1.084,1.065,1.904
	c-0.232,0.819-1.085,1.298-1.904,1.064c-23.409-6.619-59.358-11.876-97.677,0.673c-10.404,3.407-20.595,8.005-30.293,13.667
	C87.795,143.12,87.528,143.188,87.264,143.188z"/>
<path fill="#231F20" d="M87.264,159.471c-0.708,0-1.396-0.364-1.778-1.019c-0.573-0.981-0.242-2.241,0.739-2.813
	c9.913-5.79,20.338-10.493,30.987-13.98c39.182-12.832,75.886-7.471,99.777-0.715c1.093,0.31,1.729,1.446,1.42,2.539
	c-0.31,1.093-1.444,1.726-2.539,1.42c-23.341-6.603-59.182-11.846-97.377,0.665c-10.374,3.396-20.532,7.98-30.193,13.622
	C87.974,159.381,87.616,159.471,87.264,159.471z"/>
<path fill="#231F20" d="M252.597,175.24c-0.354,0-0.712-0.092-1.04-0.283c-0.138-0.081-14.022-8.159-35.687-14.287
	c-23.341-6.602-59.184-11.842-97.377,0.666c-1.079,0.354-2.242-0.233-2.595-1.314c-0.354-1.08,0.235-2.24,1.314-2.594
	c39.18-12.832,75.884-7.473,99.777-0.717c22.212,6.282,36.074,14.358,36.654,14.7c0.978,0.575,1.306,1.836,0.729,2.814
	C253.99,174.878,253.303,175.24,252.597,175.24z"/>
<path fill="#231F20" d="M455.543,169.071c-0.354,0-0.713-0.091-1.041-0.283c-0.138-0.081-14.022-8.16-35.688-14.286
	c-23.341-6.601-59.184-11.845-97.377,0.666c-1.078,0.355-2.241-0.234-2.595-1.315c-0.354-1.078,0.234-2.24,1.314-2.594
	c39.179-12.833,75.884-7.473,99.777-0.716c22.212,6.281,36.074,14.358,36.652,14.699c0.979,0.575,1.306,1.836,0.73,2.815
	C456.935,168.709,456.249,169.071,455.543,169.071z"/>
<path fill="#231F20" d="M320.797,39.592c-0.865,0-1.67-0.551-1.954-1.418c-0.354-1.079,0.234-2.242,1.314-2.596
	c39.18-12.831,75.885-7.47,99.777-0.715c1.093,0.31,1.728,1.446,1.419,2.539c-0.31,1.093-1.444,1.729-2.539,1.42
	c-23.341-6.601-59.184-11.844-97.377,0.667C321.225,39.558,321.01,39.592,320.797,39.592z"/>
<path fill="#231F20" d="M320.797,55.359c-0.865,0-1.67-0.55-1.954-1.416c-0.354-1.08,0.234-2.241,1.314-2.595
	c39.183-12.832,75.887-7.471,99.777-0.716c1.093,0.31,1.728,1.446,1.419,2.539c-0.31,1.094-1.444,1.729-2.539,1.421
	c-23.341-6.603-59.181-11.846-97.377,0.664C321.225,55.327,321.01,55.359,320.797,55.359z"/>
<path fill="#5454FF" d="M320.797,70.615c-0.648,0-1.252-0.413-1.465-1.063c-0.266-0.81,0.176-1.68,0.985-1.945
	c39.056-12.791,75.653-7.446,99.477-0.71c0.82,0.232,1.297,1.084,1.065,1.904c-0.233,0.82-1.085,1.295-1.904,1.064
	c-23.409-6.619-59.358-11.874-97.678,0.672C321.119,70.59,320.957,70.615,320.797,70.615z"/>
<path fill="#5454FF" d="M320.797,86.384c-0.648,0-1.252-0.412-1.465-1.062c-0.266-0.81,0.176-1.682,0.985-1.946
	c39.059-12.793,75.654-7.446,99.477-0.708c0.82,0.231,1.297,1.083,1.065,1.904c-0.233,0.819-1.087,1.295-1.904,1.064
	c-23.409-6.62-59.358-11.877-97.678,0.672C321.119,86.359,320.957,86.384,320.797,86.384z"/>
<path fill="#5454FF" d="M455.543,184.325c-0.266,0-0.534-0.068-0.779-0.213c-0.139-0.081-14.07-8.189-35.809-14.337
	c-23.407-6.62-59.355-11.877-97.678,0.672c-0.809,0.267-1.681-0.177-1.945-0.986c-0.266-0.81,0.176-1.681,0.985-1.946
	c39.061-12.79,75.656-7.445,99.477-0.708c22.148,6.265,36.392,14.563,36.532,14.646c0.735,0.432,0.98,1.377,0.548,2.111
	C456.587,184.054,456.073,184.325,455.543,184.325z"/>
<path fill="#5454FF" d="M290.209,200.096c-0.531,0-1.048-0.273-1.334-0.765c-0.43-0.736-0.182-1.681,0.555-2.11
	c9.881-5.771,20.273-10.46,30.888-13.936c39.056-12.792,75.654-7.446,99.477-0.709c0.82,0.231,1.297,1.084,1.065,1.904
	c-0.233,0.819-1.085,1.298-1.904,1.064c-23.41-6.62-59.36-11.875-97.678,0.673c-10.407,3.407-20.6,8.007-30.293,13.667
	C290.741,200.028,290.472,200.096,290.209,200.096z"/>
<path fill="#5454FF" d="M455.543,215.863c-0.266,0-0.534-0.068-0.779-0.213c-0.139-0.081-14.07-8.189-35.809-14.337
	c-23.407-6.621-59.355-11.877-97.678,0.672c-0.809,0.266-1.681-0.177-1.945-0.986c-0.266-0.81,0.176-1.681,0.985-1.946
	c39.061-12.79,75.656-7.446,99.477-0.708c22.148,6.265,36.392,14.563,36.532,14.646c0.735,0.432,0.98,1.377,0.548,2.111
	C456.587,215.592,456.073,215.863,455.543,215.863z"/>
<path fill="#5454FF" d="M320.797,217.832c-0.648,0-1.252-0.412-1.465-1.062c-0.266-0.81,0.176-1.682,0.985-1.946
	c39.056-12.792,75.654-7.446,99.477-0.709c0.82,0.231,1.297,1.085,1.065,1.904c-0.233,0.82-1.085,1.3-1.904,1.064
	c-23.41-6.62-59.36-11.875-97.678,0.673C321.119,217.808,320.957,217.832,320.797,217.832z"/>
<path fill="#5454FF" d="M290.209,247.401c-0.531,0-1.048-0.272-1.334-0.764c-0.43-0.736-0.182-1.682,0.555-2.11
	c9.885-5.773,20.277-10.461,30.888-13.937c39.061-12.79,75.656-7.444,99.477-0.708c22.148,6.265,36.392,14.563,36.532,14.646
	c0.735,0.432,0.98,1.377,0.548,2.111c-0.432,0.735-1.378,0.982-2.11,0.548c-0.139-0.081-14.07-8.188-35.809-14.337
	c-23.407-6.62-59.355-11.876-97.678,0.672c-10.403,3.407-20.595,8.005-30.293,13.667
	C290.741,247.334,290.472,247.401,290.209,247.401z"/>
<path fill="#231F20" d="M535.896,85.952c-0.201-0.174-20.374-17.522-52.556-30.559c-0.365-0.147-0.746-0.177-1.107-0.116V44.046
	c0-0.731-0.389-1.407-1.019-1.776c-3.594-2.099-7.268-4.083-10.919-5.899c-0.131-0.065-0.266-0.114-0.403-0.149v-6.915
	c0-0.729-0.386-1.403-1.014-1.773c-0.42-0.247-42.563-24.663-97.944-24.663c-31.963,0-62.14,8.011-89.735,23.773
	c-0.173-0.047-0.352-0.08-0.538-0.08h-17.142c-0.194,0-0.376,0.035-0.555,0.085c-8.198-4.411-47.022-23.778-96.347-23.778
	c-32.569,0-63.291,8.298-91.312,24.66c-0.631,0.368-1.02,1.045-1.02,1.776v7.898c-3.339,1.688-6.682,3.5-9.95,5.408
	c-0.632,0.37-1.02,1.046-1.02,1.777v80.986l-52.88,11.058c-0.833,0.174-1.368,0.99-1.194,1.824l30.425,146.336
	c0.151,0.728,0.793,1.229,1.509,1.229c0.101,0,0.203-0.01,0.305-0.029l21.835-4.385v32.433c0,0.685,0.341,1.324,0.91,1.707
	c0.344,0.231,0.744,0.35,1.147,0.35c0.263,0,0.526-0.05,0.776-0.151c90.881-37.032,195.888-15.205,196.938-14.979
	c0.003,0.002,0.006,0,0.008,0.002c0.03,0.006,0.062,0.006,0.093,0.011c0.049,0.008,0.098,0.011,0.147,0.015
	c0.059,0.006,0.12,0.018,0.178,0.019c0.002,0,0.004,0,0.005,0h17.142c0.135,0,0.269-0.015,0.401-0.04
	c0.066-0.014,0.128-0.038,0.19-0.058c0.062-0.019,0.124-0.03,0.184-0.054c0.168-0.068,0.34-0.132,0.509-0.2
	c0.171,0.007,0.343,0.001,0.517-0.036c0.279-0.061,7.875-1.643,20.583-3.242l-3.668,15.51c-0.162,0.684,0.037,1.402,0.525,1.906
	c0.489,0.504,1.202,0.721,1.892,0.582c50.074-10.336,97.004-0.597,127.554,9.392c33.176,10.848,54.757,24.329,54.972,24.464
	c0.332,0.21,0.714,0.316,1.097,0.316c0.277,0,0.558-0.056,0.82-0.172c0.624-0.271,1.074-0.834,1.201-1.502l49.132-259.794
	C536.704,87.168,536.449,86.432,535.896,85.952z M468.989,300.459c0.564-0.383,0.903-1.021,0.903-1.702V40.791
	c2.753,1.402,5.51,2.876,8.228,4.44v265.228c-47.325-18.602-97.622-21.551-131.775-20.701c-15.461,0.384-29.074,1.56-39.782,2.818
	c-0.095-0.039-0.188-0.077-0.29-0.101c-0.149-0.036-0.301-0.052-0.448-0.055c20.289-5.551,41.883-8.368,64.501-8.368
	c54.383,0,96.332,16.448,96.749,16.615C467.708,300.919,468.425,300.841,468.989,300.459z M465.779,30.512v265.295
	c-10.385-3.68-48.342-15.867-95.454-15.867c-31.358,0-60.816,5.308-87.607,15.781V30.49c27.106-15.6,56.78-23.508,88.217-23.508
	C420.436,6.982,459.113,26.869,465.779,30.512z M265.576,30.676h13.028v266.023h-13.028V30.676z M78.4,30.49
	c27.108-15.6,56.781-23.508,88.217-23.508c49.502,0,88.179,19.887,94.845,23.529v265.295c-10.384-3.68-48.342-15.867-95.455-15.867
	c-31.358,0-60.815,5.308-87.608,15.781V30.49z M42.376,282.466L12.577,139.138l50.74-10.61v149.733L42.376,282.466z M67.43,310.803
	v-30.444c0.391-0.353,0.596-0.894,0.485-1.446c-0.068-0.34-0.246-0.626-0.485-0.84V45.574c2.262-1.302,4.557-2.535,6.856-3.73
	v256.913c0,0.685,0.341,1.324,0.91,1.707c0.344,0.231,0.744,0.35,1.147,0.35c0.263,0,0.526-0.051,0.776-0.151
	c27.049-11.022,56.956-16.609,88.889-16.609c27.713,0,52.193,4.271,69.598,8.482c-10.136-1.107-22.521-2.091-36.399-2.436
	C165.051,289.25,114.755,292.201,67.43,310.803z M304.708,292.732c-0.038,0.022-0.068,0.053-0.104,0.078
	c-0.106,0.014-0.214,0.026-0.319,0.038C304.426,292.81,304.568,292.771,304.708,292.732z M483.941,344.025
	c-6.725-3.895-26.187-14.48-53.199-23.324c-30.411-9.957-76.81-19.667-126.626-10.175l3.28-13.865
	c36.696-4.218,107.845-7.4,172.004,18.741c0.25,0.102,0.515,0.151,0.776,0.151c0.403,0,0.804-0.118,1.148-0.35
	c0.568-0.382,0.908-1.022,0.908-1.707V59.387c27.488,11.209,45.9,25.523,50.068,28.924L483.941,344.025z"/>
<path fill="#231F20" d="M32.114,198.759c-1.288,0-1.315-0.541-1.496-4.066c-0.166-3.253-0.38-8.884-0.638-16.735
	c-0.688-20.973,6.495-36.932,6.801-37.601c0.165-0.359,0.484-0.622,0.868-0.715c0.382-0.094,0.789-0.005,1.098,0.24
	c6.913,5.457,13.446,14.764,19.417,27.658c4.422,9.549,6.875,17.637,6.899,17.718c0.175,0.58-0.08,1.205-0.611,1.497
	c-0.531,0.291-1.194,0.173-1.592-0.286c-2.995-3.462-11.484-12.735-14.761-14.046c-2.013,0.145-8.819,11.823-14.789,25.523
	C33.114,198.422,32.645,198.759,32.114,198.759z M38.471,142.996c-1.762,4.506-6.467,18.218-5.921,34.877
	c0.229,6.994,0.4,11.46,0.525,14.312c4.194-9.096,10.997-22.315,15.099-22.315c0.306,0,0.603,0.057,0.88,0.168
	c2.8,1.119,7.864,6.151,11.517,10.056C57.104,170.713,49.354,152.505,38.471,142.996z"/>
</svg>
