<?xml version="1.0" encoding="utf-8"?>
<!-- Generator: Adobe Illustrator 16.0.0, SVG Export Plug-In . SVG Version: 6.00 Build 0)  -->
<!DOCTYPE svg PUBLIC "-//W3C//DTD SVG 1.1//EN" "http://www.w3.org/Graphics/SVG/1.1/DTD/svg11.dtd">
<svg version="1.1" id="Layer_1" xmlns="http://www.w3.org/2000/svg" xmlns:xlink="http://www.w3.org/1999/xlink" x="0px" y="0px"
	 width="545.973px" height="352.482px" viewBox="0 0 545.973 352.482" enable-background="new 0 0 545.973 352.482"
	 xml:space="preserve">
<path fill="#5454FF" d="M361.647,304.517c-15.619,0-22.572-14.362-30.688-34.651c-3.436-8.589-0.811-18.243,7.589-27.918
	c6.2-7.14,13.267-11.744,13.564-11.936l1.524,2.358c-0.274,0.178-27.44,18.025-20.07,36.454
	c7.946,19.864,14.194,32.885,28.08,32.885c14.13,0,23.866-10.405,23.963-10.51l2.067,1.901
	C387.248,293.566,376.997,304.517,361.647,304.517z"/>
<path fill="#5454FF" d="M166.95,308.771c-4.111,0-8.631-0.562-13.537-1.686c-7.793-1.785-13.563-4.338-13.806-4.445l1.143-2.565
	c0.227,0.102,22.836,10.013,37.701,3.851c5.111-2.119,8.762-5.956,10.85-11.403c6.273-16.365,7.135-29.603,2.563-39.344
	c-3.34-7.116-9.667-12.295-18.807-15.396l0.902-2.66c9.891,3.355,16.77,9.029,20.446,16.863c4.91,10.46,4.074,24.438-2.483,41.542
	c-2.375,6.197-6.549,10.569-12.403,12.994C175.903,308.021,171.699,308.771,166.95,308.771z"/>
<g>
	<path fill="#231F20" d="M138.758,215.324c-11.013,0-20.838-2.079-24.771-3.846c-2.61-1.172-2.822-2.53-2.493-3.507
		c0.402-2.771-2.1-28.022-4.112-48.339c-1.792-18.092-3.646-36.799-4.156-45.72c-1.18-20.658,10.907-31.281,55.876-70.808
		l4.983-4.381c32.08-28.214,47.157-32.729,54.169-31.542c3.423,0.579,4.625,2.427,4.831,2.791l-3.26,1.843
		c0,0,0.013,0.03,0.05,0.081c-0.025-0.035-0.64-0.855-2.674-1.083c-5.206-0.58-18.706,2.632-50.644,30.722l-4.983,4.381
		c-43.891,38.578-55.687,48.946-54.611,67.782c0.506,8.844,2.355,27.512,4.144,45.564c3.177,32.074,4.325,44.685,4.11,48.679
		c3.49,1.83,21.199,5.637,37.643,2.308c12.634-2.56,21.378-8.534,25.99-17.757c14.799-29.598,12.695-58.369,12.673-58.656
		c-0.083-1.03,0.686-1.933,1.716-2.015c1.041-0.087,1.933,0.687,2.016,1.717c0.098,1.215,2.206,30.106-13.055,60.628
		c-7.625,15.25-23.912,19.753-36.232,20.846C143.541,215.228,141.122,215.324,138.758,215.324z"/>
	<path fill="#231F20" d="M117.372,143.745c-0.941,0-1.751-0.708-1.858-1.666c-0.023-0.211-2.352-21.232-2.932-32.268
		c-0.628-11.926,11.854-22.174,12.386-22.605c0.803-0.65,1.98-0.526,2.631,0.277c0.651,0.802,0.528,1.981-0.274,2.632
		c-0.115,0.093-11.532,9.487-11.004,19.498c0.575,10.928,2.892,31.842,2.915,32.052c0.114,1.027-0.626,1.954-1.654,2.067
		C117.511,143.741,117.441,143.745,117.372,143.745z"/>
</g>
<g>
	<path fill="#231F20" d="M391.5,215.324c-2.364,0-4.782-0.095-7.209-0.311c-12.32-1.092-28.607-5.596-36.232-20.846
		c-15.262-30.522-13.153-59.414-13.056-60.628c0.082-1.03,0.979-1.79,2.015-1.717c1.029,0.082,1.799,0.983,1.717,2.014
		c-0.021,0.288-2.103,29.107,12.674,58.657c4.61,9.224,13.355,15.198,25.988,17.757c16.446,3.329,34.153-0.478,37.644-2.308
		c-0.216-3.995,0.933-16.605,4.11-48.679c1.789-18.053,3.638-36.72,4.144-45.564c1.076-18.835-10.72-29.204-54.61-67.782
		l-4.984-4.381c-11.268-9.91-38.801-32.747-51.072-30.662c-1.586,0.268-2.192,0.935-2.195,0.941
		c-0.51,0.899-1.653,1.216-2.551,0.708c-0.9-0.509-1.218-1.651-0.709-2.551c0.206-0.364,1.407-2.212,4.831-2.791
		c7.01-1.184,22.089,3.328,54.169,31.542l4.983,4.381c44.97,39.527,57.057,50.15,55.877,70.808
		c-0.511,8.921-2.363,27.628-4.156,45.72c-2.013,20.314-4.514,45.566-4.111,48.339c0.329,0.978,0.117,2.335-2.494,3.507
		C412.338,213.244,402.513,215.324,391.5,215.324z"/>
	<path fill="#231F20" d="M412.886,143.745c-0.068,0-0.139-0.003-0.209-0.012c-1.027-0.113-1.769-1.04-1.654-2.067
		c0.023-0.21,2.34-21.125,2.915-32.052c0.527-10.011-10.889-19.404-11.004-19.498c-0.803-0.651-0.925-1.83-0.274-2.632
		c0.651-0.804,1.828-0.927,2.631-0.277c0.532,0.431,13.015,10.679,12.387,22.605c-0.581,11.035-2.909,32.057-2.933,32.268
		C414.638,143.036,413.827,143.745,412.886,143.745z"/>
</g>
<path fill="#231F20" d="M242.009,231.052c-0.184,0-0.371-0.027-0.556-0.085c-25.294-7.858-41.638-31.468-41.638-60.151
	c0-0.301,0.073-0.598,0.212-0.865c0.064-0.124,6.439-12.668-0.432-19.921c-8.037-8.483-17.417-55.922-18.46-61.303
	c-0.022-0.118-0.034-0.237-0.034-0.356c0-48.913,38.088-88.706,84.904-88.706s84.905,39.793,84.905,88.706
	c0,0.126-0.014,0.251-0.038,0.375c-0.429,2.093-10.611,51.395-20.977,61.759c-9.053,9.054-4.354,19.414-4.305,19.517
	c0.116,0.249,0.177,0.52,0.177,0.794c0,27.845-16.13,51.274-41.091,59.69c-0.981,0.331-2.042-0.196-2.373-1.176
	s0.196-2.042,1.176-2.372c23.306-7.857,38.404-29.726,38.543-55.777c-0.901-2.316-4.536-13.562,5.226-23.323
	c2.717-2.717,7.271-10.71,13.535-33.364c3.545-12.818,6.047-24.703,6.382-26.315c-0.098-46.761-36.468-84.77-81.16-84.77
	c-44.694,0-81.067,38.017-81.16,84.782c2.813,14.464,11.326,52.782,17.468,59.264c7.984,8.429,2.468,21.246,1.247,23.797
	c0.163,26.81,15.436,48.819,39.002,56.139c0.987,0.307,1.54,1.355,1.233,2.344C243.547,230.537,242.807,231.052,242.009,231.052z"/>
<path fill="#231F20" d="M263.192,260.362c-12.277,0-22.265-9.988-22.265-22.265v-38.482c0-1.034,0.838-1.872,1.872-1.872
	c1.034,0,1.872,0.838,1.872,1.872v38.482c0,10.212,8.308,18.521,18.521,18.521c10.212,0,18.52-8.309,18.52-18.521v-38.482
	c0-1.034,0.838-1.872,1.872-1.872c1.034,0,1.872,0.838,1.872,1.872v38.482C285.457,250.374,275.469,260.362,263.192,260.362z"/>
<path fill="none" stroke="#231F20" stroke-width="4" stroke-linecap="round" stroke-linejoin="round" stroke-miterlimit="10" d="
	M200.955,148.743"/>
<path fill="#231F20" d="M326.561,150.615c-0.901,0-1.695-0.652-1.846-1.569c-1.571-9.593-34.802-45.262-47.474-58.196
	c-0.3-0.306-0.486-0.707-0.527-1.134l-5.513-58.27c-0.107-0.651-1.406-7.571-8.229-7.571c-4.578,0-7.776,3.018-7.776,7.338
	c0,0.046-0.002,0.093-0.005,0.141l-4.385,58.327c-0.033,0.44-0.22,0.854-0.529,1.169c-12.672,12.935-45.904,48.604-47.474,58.196
	c-0.167,1.02-1.129,1.708-2.15,1.545c-1.021-0.167-1.712-1.13-1.545-2.15c1.99-12.156,41.466-53.012,48.016-59.722l4.329-57.579
	c0.037-6.383,4.871-11.009,11.52-11.009c8.222,0,11.406,7.075,11.94,10.817l5.467,57.756c6.509,6.667,46.038,47.572,48.03,59.736
	c0.167,1.021-0.524,1.983-1.545,2.15C326.762,150.607,326.661,150.615,326.561,150.615z"/>
<path fill="#231F20" d="M308.362,91.412c-7.197,0-13.055-5.365-13.055-11.958s5.857-11.958,13.055-11.958
	c7.2,0,13.056,5.365,13.056,11.958S315.562,91.412,308.362,91.412z M308.362,71.239c-5.134,0-9.311,3.685-9.311,8.214
	s4.177,8.214,9.311,8.214c5.135,0,9.312-3.685,9.312-8.214S313.497,71.239,308.362,71.239z"/>
<path fill="#231F20" d="M310.775,80.418c-3.455,0-6.267-2.597-6.267-5.789c0-3.193,2.812-5.79,6.267-5.79s6.266,2.597,6.266,5.79
	C317.041,77.821,314.23,80.418,310.775,80.418z M310.775,71.647c-1.906,0-3.459,1.337-3.459,2.982c0,1.644,1.553,2.981,3.459,2.981
	s3.458-1.337,3.458-2.981C314.233,72.985,312.681,71.647,310.775,71.647z"/>
<path fill="#231F20" d="M223.723,91.412c-7.199,0-13.055-5.365-13.055-11.958s5.856-11.958,13.055-11.958
	c7.199,0,13.055,5.365,13.055,11.958S230.922,91.412,223.723,91.412z M223.723,71.239c-5.134,0-9.311,3.685-9.311,8.214
	s4.177,8.214,9.311,8.214c5.134,0,9.311-3.685,9.311-8.214S228.857,71.239,223.723,71.239z"/>
<path fill="#231F20" d="M227.012,80.418c-3.455,0-6.266-2.597-6.266-5.789c0-3.193,2.811-5.79,6.266-5.79
	c3.456,0,6.267,2.597,6.267,5.79C233.278,77.821,230.467,80.418,227.012,80.418z M227.012,71.647c-1.907,0-3.458,1.337-3.458,2.982
	c0,1.644,1.551,2.981,3.458,2.981c1.907,0,3.458-1.337,3.458-2.981C230.47,72.985,228.919,71.647,227.012,71.647z"/>
<g>
	<path fill="#231F20" d="M262.315,165.964c-6.244,0-26.65-8.928-26.65-20.948c0-11.551,12.349-20.949,27.527-20.949
		s27.527,9.398,27.527,20.949C290.719,157.036,268.971,165.964,262.315,165.964z M263.192,127.812
		c-13.114,0-23.783,7.718-23.783,17.205c0,5.221,5.875,9.699,9.377,11.905c5.198,3.273,11.069,5.299,13.529,5.299
		c2.676,0,9.027-2.038,14.619-5.329c6.381-3.756,10.041-8.084,10.041-11.875C286.975,135.529,276.306,127.812,263.192,127.812z"/>
	<path fill="#231F20" d="M272.604,153.123c-0.58,0-1.145-0.096-1.694-0.289c-3.181-1.114-4.174-4.979-4.277-5.417
		c-0.084-0.357-0.062-0.731,0.065-1.076c0.276-0.749,6.869-18.3,16.792-15.171c0.986,0.312,1.533,1.363,1.222,2.349
		c-0.312,0.985-1.362,1.535-2.35,1.221c-5.16-1.628-10.231,8.048-11.93,12.318c0.299,0.818,0.914,1.964,1.72,2.242
		c0.953,0.333,2.312-0.583,3.039-1.153c4.698-3.692,8.553-5.279,11.456-4.709c1.553,0.303,2.799,1.209,3.606,2.621
		c0.514,0.898,0.201,2.042-0.697,2.554c-0.897,0.513-2.041,0.203-2.554-0.697c-0.268-0.469-0.588-0.709-1.073-0.803
		c-0.808-0.155-3.251-0.087-8.424,3.978C275.786,152.443,274.144,153.123,272.604,153.123z"/>
	<path fill="#231F20" d="M254.658,153.123c-1.541,0-3.182-0.679-4.902-2.03c-5.173-4.064-7.612-4.132-8.424-3.978
		c-0.484,0.094-0.805,0.334-1.072,0.803c-0.513,0.9-1.656,1.209-2.554,0.697s-1.21-1.656-0.697-2.554
		c0.806-1.411,2.053-2.317,3.605-2.621c2.903-0.568,6.757,1.018,11.456,4.709c0.727,0.57,2.089,1.486,3.039,1.153
		c0.805-0.277,1.418-1.42,1.72-2.242c-1.704-4.269-6.779-13.95-11.929-12.318c-0.988,0.312-2.038-0.236-2.35-1.221
		c-0.311-0.986,0.235-2.038,1.221-2.349c9.929-3.129,16.517,14.422,16.792,15.171c0.127,0.345,0.15,0.718,0.066,1.076
		c-0.103,0.437-1.096,4.302-4.277,5.417C255.802,153.027,255.237,153.123,254.658,153.123z"/>
</g>
<path fill="#231F20" d="M295.864,204.118c-16.508,0-29.939-13.43-29.939-29.938v-10.525c0-1.034,0.838-1.872,1.873-1.872
	c1.034,0,1.872,0.838,1.872,1.872v10.525c0,14.443,11.751,26.194,26.194,26.194s26.195-11.751,26.195-26.194
	c0-1.034,0.838-1.872,1.872-1.872c1.033,0,1.872,0.838,1.872,1.872C325.803,190.688,312.373,204.118,295.864,204.118z"/>
<path fill="#231F20" d="M230.082,204.118c-16.509,0-29.939-13.43-29.939-29.938c0-1.034,0.838-1.872,1.872-1.872
	s1.872,0.838,1.872,1.872c0,14.443,11.751,26.194,26.195,26.194c14.444,0,26.195-11.751,26.195-26.194v-10.525
	c0-1.034,0.838-1.872,1.872-1.872c1.034,0,1.872,0.838,1.872,1.872v10.525C260.021,190.688,246.59,204.118,230.082,204.118z"/>
<path fill="#231F20" d="M262.096,240.079c-1.034,0-1.872-0.838-1.872-1.872V192.16c0-1.034,0.838-1.872,1.872-1.872
	s1.872,0.838,1.872,1.872v46.047C263.968,239.241,263.129,240.079,262.096,240.079z"/>
<path fill="#231F20" d="M351.998,108.924c-0.244,0-0.492-0.063-0.716-0.197c-0.667-0.396-0.887-1.258-0.491-1.924
	c7.947-13.383,2.092-39.492,2.032-39.754c-0.173-0.755,0.299-1.508,1.054-1.682c0.757-0.172,1.51,0.299,1.683,1.054
	c0.256,1.115,6.168,27.465-2.354,41.816C352.942,108.679,352.476,108.924,351.998,108.924z"/>
<path fill="#231F20" d="M177.882,108.924c-0.479,0-0.946-0.245-1.208-0.688c-8.521-14.351-2.61-40.701-2.354-41.816
	c0.173-0.755,0.922-1.225,1.683-1.054c0.755,0.174,1.228,0.927,1.054,1.682c-0.06,0.262-5.915,26.372,2.031,39.754
	c0.396,0.667,0.176,1.529-0.49,1.924C178.373,108.861,178.126,108.924,177.882,108.924z"/>
<path fill="#5454FF" d="M334.38,81.834c-3.295-24.297-35.902-22.49-36.234-22.469l-0.18-2.803
	c0.354-0.022,35.555-1.966,39.196,24.896L334.38,81.834z"/>
<path fill="#5454FF" d="M198.144,81.834l-2.783-0.376c3.642-26.861,38.844-24.917,39.196-24.896l-0.179,2.803
	c-0.083-0.007-8.468-0.498-17.119,2.103C205.946,64.868,199.515,71.721,198.144,81.834z"/>
<path fill="#5454FF" d="M312.528,99.453c-2.124,0-4.093-0.28-5.602-0.658l0.679-2.725c0.034,0.009,3.383,0.827,7.105,0.451
	c4.702-0.468,7.808-2.546,9.229-6.178l2.615,1.024C324.073,97.709,317.82,99.453,312.528,99.453z"/>
<path fill="#5454FF" d="M218.681,99.453c-5.292,0-11.545-1.744-14.027-8.086l2.615-1.024c1.421,3.632,4.526,5.71,9.228,6.178
	c3.725,0.374,7.072-0.442,7.105-0.451l0.68,2.725C222.774,99.173,220.805,99.453,218.681,99.453z"/>
<path fill="#5454FF" d="M395.623,207.002c-3.109,0-6.652-0.158-10.359-0.622c-15.415-1.927-26.144-8.302-31.021-18.436l2.53-1.218
	c10.814,22.463,49.442,16.823,49.831,16.763l0.427,2.775C406.749,206.309,402.131,207.002,395.623,207.002z"/>
<path fill="#5454FF" d="M133.393,207.002c-6.51,0-11.126-0.694-11.408-0.737l0.427-2.775c0.39,0.06,39.016,5.701,49.832-16.763
	l2.53,1.218c-4.879,10.134-15.606,16.509-31.022,18.436C140.046,206.844,136.503,207.002,133.393,207.002z"/>
<path fill="#231F20" d="M123.807,351.325c-0.012,0-0.023,0-0.036,0c-1.034-0.02-1.856-0.873-1.837-1.907
	c0.529-28.56,31.844-82.088,46.894-107.814c1.881-3.215,3.514-6.006,4.809-8.273c11.349-19.86,14.927-66.569,14.961-67.039
	c0.077-1.031,0.976-1.811,2.005-1.729c1.031,0.076,1.805,0.974,1.729,2.005c-0.144,1.952-3.676,48.023-15.444,68.62
	c-1.3,2.276-2.94,5.079-4.828,8.307c-14.889,25.45-45.871,78.409-46.382,105.992C125.659,350.51,124.825,351.325,123.807,351.325z"
	/>
<path fill="#231F20" d="M406.231,351.325c-1.019,0-1.853-0.815-1.872-1.838c-0.511-27.581-31.49-80.538-46.379-105.988
	c-1.89-3.229-3.529-6.033-4.83-8.311c-11.77-20.596-15.301-66.668-15.445-68.62c-0.076-1.031,0.697-1.929,1.729-2.005
	c1.035-0.081,1.929,0.697,2.006,1.729c0.035,0.469,3.612,47.178,14.962,67.039c1.295,2.268,2.93,5.061,4.811,8.277
	c15.05,25.724,46.363,79.251,46.892,107.81c0.019,1.034-0.803,1.888-1.838,1.907C406.254,351.325,406.242,351.325,406.231,351.325z"
	/>
<path fill="#231F20" d="M306.682,231.864c-0.484,0-0.956-0.251-1.217-0.7c-0.389-0.672-0.159-1.53,0.512-1.918
	c10.614-6.145,19.234-23.778,19.32-23.956c0.338-0.697,1.179-0.988,1.876-0.652c0.698,0.338,0.989,1.177,0.652,1.875
	c-0.365,0.756-9.09,18.591-20.441,25.163C307.163,231.804,306.92,231.864,306.682,231.864z"/>
<path fill="#231F20" d="M216.923,231.864c-0.239,0-0.48-0.06-0.702-0.189c-11.352-6.572-20.076-24.406-20.441-25.163
	c-0.338-0.698-0.045-1.538,0.652-1.875c0.698-0.341,1.537-0.047,1.875,0.651c0.086,0.178,8.717,17.817,19.32,23.956
	c0.671,0.388,0.9,1.247,0.512,1.918C217.879,231.612,217.408,231.864,216.923,231.864z"/>
<path fill="none" stroke="#231F20" stroke-width="4" stroke-linecap="round" stroke-linejoin="round" stroke-miterlimit="10" d="
	M208.593,329.864"/>
<path fill="#231F20" d="M516.113,42.19c-1.765,1.933-4.277,3.048-6.894,3.061c-2.51,0.011-4.872-0.954-6.654-2.72
	c-1.781-1.765-2.77-4.119-2.78-6.627c-0.012-2.364,0.86-4.627,2.455-6.374c1.764-1.933,4.276-3.049,6.892-3.061
	c2.508-0.013,4.871,0.954,6.653,2.719c1.782,1.766,2.771,4.121,2.781,6.627C518.577,38.181,517.705,40.444,516.113,42.19z
	 M505.087,32.129c-0.939,1.029-1.453,2.362-1.445,3.757c0.005,1.477,0.589,2.863,1.638,3.903c1.05,1.04,2.442,1.611,3.92,1.603
	c1.565-0.007,3.009-0.646,4.064-1.804c0.938-1.027,1.451-2.36,1.444-3.754c-0.007-1.478-0.589-2.866-1.639-3.906
	c-1.05-1.041-2.442-1.609-3.921-1.602C507.584,30.334,506.143,30.974,505.087,32.129z"/>
<path fill="#5454FF" d="M495.411,140.162c-2.946,3.229-7.145,5.093-11.517,5.114c-4.19,0.019-8.139-1.594-11.116-4.546
	c-2.977-2.948-4.628-6.88-4.647-11.07c-0.017-3.953,1.44-7.733,4.102-10.649c2.949-3.23,7.146-5.093,11.517-5.114
	c4.191-0.019,8.14,1.594,11.117,4.545c2.977,2.949,4.628,6.883,4.646,11.072C499.528,133.466,498.073,137.247,495.411,140.162z
	 M475.081,121.61c-2.007,2.2-3.105,5.052-3.093,8.033c0.016,3.158,1.26,6.125,3.505,8.349c2.245,2.225,5.223,3.442,8.383,3.428
	c3.298-0.016,6.463-1.422,8.688-3.857c2.007-2.198,3.104-5.051,3.091-8.028c-0.013-3.163-1.258-6.127-3.503-8.353
	c-2.246-2.226-5.224-3.441-8.386-3.427C480.47,117.769,477.305,119.175,475.081,121.61z"/>
<path fill="#231F20" d="M63.247,166.406c-4.005,0-7.858-1.689-10.573-4.634c-2.601-2.823-3.948-6.491-3.791-10.328
	c0.157-3.836,1.797-7.381,4.62-9.983c2.663-2.454,6.122-3.804,9.74-3.804c4.006,0,7.86,1.688,10.572,4.634
	c2.603,2.823,3.95,6.49,3.793,10.327c-0.156,3.837-1.799,7.384-4.624,9.985C70.323,165.054,66.864,166.406,63.247,166.406z
	 M63.243,141.075c-2.757,0-5.393,1.03-7.422,2.901c-2.151,1.981-3.401,4.684-3.521,7.607c-0.119,2.923,0.907,5.719,2.89,7.872
	c2.069,2.243,5.006,3.531,8.058,3.531c2.757,0,5.392-1.03,7.42-2.901c2.153-1.981,3.404-4.682,3.523-7.605
	c0.12-2.925-0.907-5.721-2.892-7.873C69.233,142.362,66.296,141.075,63.243,141.075z"/>
<path fill="#231F20" d="M89.858,50.307c-0.116,0-0.231-0.002-0.347-0.006c-2.223-0.091-4.276-1.041-5.784-2.678
	c-1.507-1.634-2.288-3.759-2.197-5.981c0.091-2.222,1.042-4.277,2.677-5.784l2.318,2.515c-0.964,0.89-1.524,2.099-1.578,3.408
	c-0.054,1.31,0.406,2.562,1.294,3.524c0.888,0.965,2.099,1.526,3.408,1.58c1.314,0.057,2.561-0.407,3.524-1.295l2.318,2.514
	C93.942,49.533,91.954,50.307,89.858,50.307z"/>
<path fill="#5454FF" d="M453.789,67.706c-0.115,0-0.231-0.002-0.347-0.006c-2.224-0.09-4.276-1.04-5.785-2.677
	c-1.506-1.635-2.287-3.759-2.195-5.981c0.091-2.222,1.042-4.277,2.677-5.784l2.317,2.515c-0.964,0.89-1.524,2.099-1.577,3.408
	c-0.055,1.31,0.405,2.562,1.294,3.524c0.888,0.964,2.1,1.525,3.408,1.58c1.313,0.057,2.561-0.407,3.523-1.295l2.317,2.514
	C457.873,66.931,455.884,67.706,453.789,67.706z"/>
<path fill="#5454FF" d="M45.66,96.498c-3.754,0-7.497-1.506-10.235-4.477l2.515-2.318c3.919,4.252,10.571,4.524,14.824,0.606
	c2.061-1.897,3.259-4.486,3.374-7.285c0.114-2.8-0.87-5.478-2.769-7.538l2.514-2.318c2.52,2.733,3.823,6.284,3.671,9.995
	c-0.152,3.713-1.74,7.145-4.474,9.661C52.412,95.282,49.032,96.498,45.66,96.498z"/>
</svg>
