<?xml version="1.0" encoding="utf-8"?>
<!-- Generator: Adobe Illustrator 16.0.0, SVG Export Plug-In . SVG Version: 6.00 Build 0)  -->
<!DOCTYPE svg PUBLIC "-//W3C//DTD SVG 1.1//EN" "http://www.w3.org/Graphics/SVG/1.1/DTD/svg11.dtd">
<svg version="1.1" id="Layer_1" xmlns="http://www.w3.org/2000/svg" xmlns:xlink="http://www.w3.org/1999/xlink" x="0px" y="0px"
	 width="260.167px" height="71.167px" viewBox="0 0 260.167 71.167" enable-background="new 0 0 260.167 71.167"
	 xml:space="preserve">
<g>
	<path d="M15.431,31.665c-8.602,0-15.6-6.998-15.6-15.6S6.83,0.464,15.431,0.464c3.594,0,7.103,1.252,9.878,3.526
		c0.369,0.302,0.423,0.846,0.121,1.214s-0.846,0.423-1.214,0.121c-2.468-2.021-5.588-3.135-8.785-3.135
		c-7.65,0-13.874,6.224-13.874,13.875c0,7.65,6.224,13.874,13.874,13.874c3.294,0,6.463-1.164,8.966-3.285v-7.685H9.99
		c-0.477,0-0.863-0.386-0.863-0.863c0-0.477,0.386-0.863,0.863-0.863h15.27c0.477,0,0.863,0.386,0.863,0.863v8.941
		c0,0.245-0.104,0.479-0.287,0.643C22.974,30.253,19.279,31.665,15.431,31.665z"/>
	<path d="M25.188,15.444H9.918c-0.477,0-0.863-0.386-0.863-0.863c0-0.477,0.386-0.863,0.863-0.863h15.27
		c0.477,0,0.863,0.386,0.863,0.863C26.051,15.058,25.665,15.444,25.188,15.444z"/>
</g>
<path d="M51.028,29.939H37.041V1.44c0-0.477-0.386-0.863-0.863-0.863c-0.477,0-0.863,0.386-0.863,0.863v28.499h-1.902V1.44
	c0-0.477-0.386-0.863-0.863-0.863c-0.477,0-0.863,0.386-0.863,0.863v29.362c0,0.477,0.386,0.863,0.863,0.863h18.478
	c0.477,0,0.863-0.386,0.863-0.863C51.891,30.325,51.505,29.939,51.028,29.939z"/>
<path d="M56.923,31.665c-0.477,0-0.863-0.386-0.863-0.863V1.44c0-0.477,0.386-0.863,0.863-0.863c0.477,0,0.863,0.386,0.863,0.863
	v29.362C57.786,31.279,57.4,31.665,56.923,31.665z"/>
<g>
	<path d="M107.767,2.36H63.8c-0.477,0-0.863-0.386-0.863-0.863c0-0.477,0.386-0.863,0.863-0.863h43.967
		c0.477,0,0.863,0.386,0.863,0.863C108.63,1.974,108.244,2.36,107.767,2.36z"/>
	<path d="M107.767,4.205H63.8c-0.477,0-0.863,0.386-0.863,0.863c0,0.477,0.386,0.863,0.863,0.863h8.66v24.871
		c0,0.477,0.386,0.863,0.863,0.863s0.863-0.386,0.863-0.863V5.931h22.675v24.871c0,0.477,0.387,0.863,0.863,0.863
		s0.863-0.386,0.863-0.863V5.931h9.179c0.477,0,0.863-0.386,0.863-0.863C108.63,4.591,108.244,4.205,107.767,4.205z"/>
</g>
<path d="M133.444,29.939h-17.616V18.854h14.101c0.477,0,0.863-0.386,0.863-0.863c0-0.477-0.387-0.863-0.863-0.863h-14.101v-2.355
	h14.101c0.477,0,0.863-0.386,0.863-0.863c0-0.477-0.387-0.863-0.863-0.863h-14.101V2.304h17.616c0.477,0,0.863-0.386,0.863-0.863
	c0-0.477-0.387-0.863-0.863-0.863h-18.479c-0.476,0-0.863,0.386-0.863,0.863v29.362c0,0.477,0.387,0.863,0.863,0.863h18.479
	c0.477,0,0.863-0.386,0.863-0.863C134.308,30.325,133.921,29.939,133.444,29.939z"/>
<path d="M191.861,29.991h-32.199l-6.251-12.72c-0.146-0.295-0.445-0.482-0.775-0.482h-7.892v-2.185h6.563
	c3.914,0,7.098-3.185,7.098-7.099c0-3.914-3.184-7.098-7.098-7.098h-11.45c-0.477,0-0.863,0.386-0.863,0.863V30.86
	c0,0.477,0.387,0.863,0.863,0.863s0.863-0.386,0.863-0.863V2.134h2.298V30.86c0,0.477,0.387,0.863,0.863,0.863
	c0.476,0,0.863-0.386,0.863-0.863V18.515h7.354l6.251,12.72c0.146,0.295,0.446,0.482,0.775,0.482h32.736
	c0.477,0,0.863-0.386,0.863-0.863C192.725,30.377,192.338,29.991,191.861,29.991z M151.308,2.134c2.962,0,5.372,2.41,5.372,5.372
	c0,2.962-2.41,5.373-5.372,5.373h-6.563V2.134H151.308z"/>
<path d="M162.687,69.701l-6.417-13.091c-0.146-0.295-0.446-0.483-0.775-0.483h-7.892v-2.185h6.562c3.914,0,7.098-3.184,7.098-7.098
	c0-3.915-3.185-7.099-7.098-7.099h-11.45c-0.477,0-0.863,0.387-0.863,0.863v29.475c0,0.477,0.386,0.863,0.863,0.863
	s0.863-0.387,0.863-0.863V41.471h2.298v28.61c0,0.477,0.387,0.863,0.863,0.863s0.863-0.387,0.863-0.863V57.853h7.354l6.18,12.609
	c0.15,0.306,0.457,0.483,0.775,0.483c0.128,0,0.258-0.029,0.38-0.089C162.72,70.646,162.896,70.128,162.687,69.701z M154.165,41.471
	c2.962,0,5.372,2.411,5.372,5.373c0,2.962-2.41,5.372-5.372,5.372h-6.562V41.471H154.165z"/>
<path d="M131.383,54.262c2.261-1.404,3.775-3.901,3.775-6.752c0-4.382-3.566-7.949-7.949-7.949h-11.336
	c-0.477,0-0.863,0.386-0.863,0.863v28.782H68.231c-0.477,0-0.863,0.386-0.863,0.862s0.387,0.863,0.863,0.863h47.642
	c0.477,0,0.863-0.387,0.863-0.863V41.288h1.773v28.781c0,0.477,0.387,0.863,0.863,0.863h9.027c4.757,0,8.628-3.87,8.628-8.627
	C137.028,58.594,134.674,55.464,131.383,54.262z M127.209,41.288c3.431,0,6.223,2.792,6.223,6.223s-2.792,6.222-6.223,6.222h-6.974
	V41.288H127.209z M128.4,69.207h-8.165V55.458h6.974c0.034,0,0.066-0.004,0.1-0.005h1.096c3.806,0,6.897,3.045,6.897,6.852
	C135.302,66.11,132.206,69.207,128.4,69.207z"/>
<path d="M193.161,69.758l-11.755-29.638c-0.13-0.33-0.448-0.545-0.802-0.545c-0.001,0-0.002,0-0.003,0
	c-0.355,0.001-0.673,0.221-0.801,0.551l-11.463,29.643c-0.172,0.445,0.049,0.945,0.494,1.117c0.102,0.039,0.207,0.059,0.311,0.059
	c0.346,0,0.673-0.21,0.805-0.552l8.614-22.28l9.048,22.282c0.136,0.335,0.459,0.538,0.8,0.538c0.108,0,0.218-0.02,0.324-0.063
	c0.442-0.179,0.655-0.683,0.476-1.124l-9.73-23.963c-0.002-0.006-0.006-0.01-0.008-0.016l1.146-2.961l10.943,27.589
	c0.176,0.444,0.678,0.658,1.121,0.484C193.12,70.703,193.336,70.202,193.161,69.758z"/>
<path d="M199.422,70.941c-0.477,0-0.863-0.386-0.863-0.862V40.212c0-0.477,0.387-0.863,0.863-0.863s0.863,0.386,0.863,0.863v29.867
	C200.285,70.555,199.899,70.941,199.422,70.941z"/>
<path d="M208.378,70.941c-0.477,0-0.863-0.386-0.863-0.862V46.603c0-0.377,0.245-0.709,0.604-0.823
	c0.358-0.113,0.75,0.019,0.966,0.328l16.456,23.479c0.274,0.391,0.179,0.929-0.212,1.202c-0.389,0.273-0.927,0.179-1.202-0.212
	l-14.886-21.237v20.739C209.241,70.555,208.854,70.941,208.378,70.941z"/>
<path d="M229.438,70.932c-0.275,0-0.54-0.131-0.704-0.364l-21.173-29.857c-0.276-0.389-0.184-0.928,0.205-1.203
	c0.39-0.276,0.928-0.184,1.203,0.205l19.632,27.715v-27.33c0-0.477,0.386-0.863,0.862-0.863s0.863,0.386,0.863,0.863l-0.025,29.97
	c0,0.376-0.244,0.709-0.602,0.823C229.613,70.918,229.525,70.932,229.438,70.932z"/>
<path d="M235.974,70.941c-0.179,0-0.358-0.055-0.513-0.168c-0.384-0.283-0.465-0.824-0.182-1.207l20.701-28.038h-20.282
	c-0.477,0-0.863-0.386-0.863-0.863s0.387-0.863,0.863-0.863h21.992c0.326,0,0.624,0.184,0.771,0.475s0.118,0.639-0.075,0.901
	L236.668,70.59C236.5,70.82,236.239,70.941,235.974,70.941z"/>
<path d="M257.852,70.932H240.28c-0.328,0-0.629-0.187-0.774-0.481c-0.145-0.295-0.109-0.646,0.091-0.907l17.638-22.943
	c0.291-0.378,0.832-0.449,1.21-0.158s0.449,0.832,0.158,1.21l-16.57,21.554h15.82c0.477,0,0.863,0.386,0.863,0.862
	S258.329,70.932,257.852,70.932z"/>
<path d="M257.792,31.665h-49.868c-0.477,0-0.863-0.386-0.863-0.863c0-0.477,0.387-0.863,0.863-0.863h49.868
	c0.477,0,0.863,0.386,0.863,0.863C258.656,31.279,258.269,31.665,257.792,31.665z"/>
<path d="M51.07,70.932H0.792c-0.477,0-0.863-0.387-0.863-0.863s0.386-0.862,0.863-0.862H51.07c0.477,0,0.863,0.386,0.863,0.862
	S51.546,70.932,51.07,70.932z"/>
</svg>
