<?xml version="1.0" encoding="utf-8"?>
<!-- Generator: Adobe Illustrator 16.0.0, SVG Export Plug-In . SVG Version: 6.00 Build 0)  -->
<!DOCTYPE svg PUBLIC "-//W3C//DTD SVG 1.1//EN" "http://www.w3.org/Graphics/SVG/1.1/DTD/svg11.dtd">
<svg version="1.1" id="Layer_1" xmlns="http://www.w3.org/2000/svg" xmlns:xlink="http://www.w3.org/1999/xlink" x="0px" y="0px"
	 width="545.973px" height="352.482px" viewBox="0 0 545.973 352.482" enable-background="new 0 0 545.973 352.482"
	 xml:space="preserve">
<path fill="none" d="M271.67,54.981c-3.481-2.707,88.691-45.177,161.555,33.607c45.271,48.95,27.616,102.65,21.02,163.978
	l-7.193,0.218l0.236-3.838c0.334-45.015-15.188-95.7-47.01-130.108c-33.975-36.741-79.351-56.074-125.656-57.249
	c-5.395-0.134,1.103-0.544-4.303-0.184L271.67,54.981z"/>
<path fill="none" stroke="#231F20" stroke-width="3" stroke-linecap="round" stroke-linejoin="round" stroke-miterlimit="10" d="
	M460.522,243.354"/>
<path fill="none" stroke="#231F20" stroke-width="3" stroke-linecap="round" stroke-linejoin="round" stroke-miterlimit="10" d="
	M301.464,33.408"/>
<path fill="#231F20" d="M310.586,147.791c-9.914,0-19.453-4.18-26.17-11.47c-6.44-6.988-9.772-16.065-9.385-25.561
	c0.389-9.497,4.451-18.271,11.438-24.711c6.589-6.071,15.147-9.415,24.101-9.415c9.916,0,19.457,4.181,26.173,11.468
	c6.439,6.99,9.774,16.067,9.385,25.562c-0.389,9.496-4.45,18.271-11.438,24.71C328.1,144.445,319.541,147.791,310.586,147.791z
	 M310.571,80.489c-7.982,0-15.613,2.982-21.488,8.395c-6.231,5.742-9.854,13.566-10.201,22.034
	c-0.345,8.467,2.626,16.561,8.368,22.793c5.989,6.497,14.496,10.225,23.336,10.225c7.984,0,15.615-2.981,21.491-8.396
	c6.231-5.741,9.854-13.566,10.199-22.032c0.348-8.467-2.625-16.562-8.369-22.792C327.919,84.216,319.413,80.489,310.571,80.489z"/>
<path fill="#5454FF" d="M408.742,233.439c-6.259,0-12.276-2.635-16.516-7.234c-4.062-4.409-6.166-10.138-5.921-16.128
	c0.243-5.992,2.807-11.529,7.217-15.592c4.156-3.832,9.557-5.942,15.207-5.942c6.258,0,12.275,2.639,16.514,7.237
	c4.063,4.409,6.166,10.136,5.924,16.128c-0.245,5.991-2.811,11.527-7.219,15.592C419.79,231.332,414.389,233.439,408.742,233.439z
	 M408.729,192.398c-4.677,0-9.151,1.748-12.595,4.92c-3.652,3.367-5.775,7.953-5.978,12.917c-0.203,4.963,1.54,9.706,4.905,13.358
	c3.508,3.809,8.495,5.993,13.68,5.993c4.679,0,9.149-1.748,12.592-4.92c3.654-3.365,5.778-7.953,5.979-12.914
	c0.205-4.963-1.538-9.707-4.905-13.359C418.898,194.583,413.915,192.398,408.729,192.398z"/>
<path fill="#231F20" d="M272.1,255.913c-7.631,0-14.972-3.216-20.141-8.826c-10.233-11.104-9.524-28.462,1.58-38.696
	c5.071-4.672,11.659-7.245,18.55-7.245c7.633,0,14.976,3.216,20.143,8.826c10.231,11.105,9.522,28.461-1.58,38.694
	C285.581,253.339,278.992,255.913,272.1,255.913z M272.09,205.001c-5.921,0-11.582,2.211-15.938,6.226
	c-9.542,8.791-10.151,23.708-1.359,33.249c4.442,4.82,10.75,7.583,17.307,7.583c5.922,0,11.583-2.212,15.94-6.228
	c9.541-8.791,10.149-23.705,1.359-33.246C284.958,207.765,278.649,205.001,272.09,205.001z"/>
<circle fill="none" cx="317.561" cy="96.755" r="6.163"/>
<circle fill="none" cx="313.128" cy="129.929" r="6.163"/>
<path fill="none" d="M417.155,196.269c-2.499,2.309-6.399,2.151-8.709-0.354c-2.306-2.504-2.145-6.401,0.358-8.709
	c2.503-2.306,6.401-2.146,8.709,0.357C419.823,190.065,419.66,193.964,417.155,196.269z"/>
<circle fill="none" cx="281.968" cy="239.5" r="6.163"/>
<circle fill="none" cx="259.467" cy="237.555" r="6.163"/>
<g>
	<path fill="#231F20" d="M478.185,290.978L478.185,290.978c-1.338,0-2.689-0.108-4.02-0.321c-6.655-1.064-12.496-4.659-16.45-10.119
		c-3.938-5.441-5.532-12.087-4.488-18.719c5.714-54.183-12.489-112.952-46.389-149.736c-34.453-37.388-81.064-57.978-131.243-57.978
		c-3.961,0-7.977,0.134-11.934,0.398c-0.115,0.009-0.23,0.009-0.345,0l-8.489-0.572c-0.079-0.006-0.157-0.014-0.234-0.027
		c-6.656-1.066-12.499-4.66-16.452-10.12c-3.952-5.461-5.543-12.133-4.477-18.788c2.1-13.123,13.372-21.468,28.453-20.967
		c5.579-0.403,11.215-0.609,16.757-0.609c62.7,0,121.475,26.306,165.494,74.076c43.2,46.878,66.253,122.283,58.726,192.1
		c-0.004,0.044-0.009,0.088-0.017,0.133C501.108,282.04,490.639,290.978,478.185,290.978z M275.596,48.964
		c51.633,0,99.583,21.178,135.021,59.635c34.871,37.838,53.599,98.219,47.715,153.827c-0.006,0.045-0.012,0.09-0.021,0.136
		c-0.846,5.299,0.42,10.613,3.568,14.962c3.146,4.348,7.799,7.21,13.101,8.058c1.062,0.17,2.138,0.255,3.205,0.255
		c9.895,0,18.215-7.086,19.808-16.86c7.354-68.392-15.177-142.176-57.403-188c-43.037-46.7-100.468-72.419-161.715-72.419
		c-5.463,0-11.021,0.204-16.521,0.606c-0.095,0.008-0.19,0.01-0.283,0.005c-12.568-0.453-21.631,6.011-23.333,16.637
		c-0.849,5.301,0.417,10.614,3.566,14.963c3.126,4.316,7.735,7.169,12.989,8.04l8.198,0.553
		C267.506,49.099,271.578,48.964,275.596,48.964z"/>
	<path fill="#5454FF" d="M478.183,271.48c-0.298,0-0.606-0.022-0.93-0.074c-1.296-0.208-2.439-0.821-3.31-1.771
		c-1.205-1.303-1.735-3.055-1.457-4.806l0.122-0.902c6.299-59.522-13.891-124.314-51.435-165.057
		C383.54,58.03,330.49,34.605,275.63,34.605c-3.978,0-8.011,0.123-11.989,0.364l-0.123,0.007l-6.584-0.49
		c-0.993-0.291-1.856-0.831-2.563-1.601c-0.708-0.768-1.84-2.414-1.457-4.81c0.275-1.708,1.653-4.573,7.796-4.573
		c0.279,0,0.555,0.006,0.827,0.017l0.929,0.031l0.94-0.066c5.12-0.375,10.299-0.564,15.389-0.564
		c57.241,0,110.952,24.074,151.236,67.787c39.38,42.732,60.479,111.865,53.751,176.125l-0.042,0.239
		c-0.316,1.347-1.08,2.493-2.215,3.314C480.538,271.103,479.383,271.48,478.183,271.48z M275.63,30.752
		c55.934,0,110.016,23.876,148.378,65.507c38.266,41.521,58.846,107.498,52.434,168.085l-0.146,1.095
		c-0.12,0.747,0.195,1.274,0.482,1.585c0.292,0.319,0.646,0.504,1.084,0.576c0.517,0.077,0.982-0.033,1.4-0.335
		c0.352-0.253,0.587-0.582,0.7-0.978c6.575-63.169-14.13-131.048-52.765-172.97c-39.546-42.912-92.248-66.545-148.402-66.545
		c-4.996,0-10.081,0.187-15.113,0.555l-1.145,0.08l-1.138-0.038c-0.233-0.008-0.46-0.013-0.689-0.013
		c-0.886,0-3.792,0.096-3.99,1.33c-0.12,0.747,0.197,1.275,0.486,1.586c0.194,0.212,0.404,0.361,0.652,0.46l5.675,0.38
		C267.548,30.874,271.617,30.752,275.63,30.752z"/>
</g>
<path fill="#231F20" d="M344.905,237.881c-4.124,0-8.092-1.739-10.884-4.771c-2.68-2.908-4.066-6.683-3.904-10.633
	c0.159-3.948,1.851-7.599,4.758-10.279c2.738-2.525,6.301-3.916,10.026-3.916c4.123,0,8.09,1.739,10.883,4.771
	c5.528,5.999,5.146,15.381-0.853,20.911C352.19,236.491,348.629,237.881,344.905,237.881z M344.901,212.137
	c-2.755,0-5.388,1.029-7.414,2.897c-2.15,1.98-3.401,4.68-3.521,7.6c-0.118,2.92,0.908,5.713,2.889,7.863
	c2.066,2.243,5,3.528,8.05,3.528c2.753,0,5.386-1.027,7.415-2.896c4.438-4.09,4.72-11.028,0.631-15.464
	C350.886,213.423,347.95,212.137,344.901,212.137z"/>
<path fill="#5454FF" d="M318.167,192.303c-3.425,0-6.721-1.443-9.043-3.962c-2.226-2.415-3.376-5.55-3.243-8.832
	c0.134-3.282,1.537-6.314,3.952-8.54c2.278-2.097,5.236-3.252,8.329-3.252c3.427,0,6.721,1.445,9.041,3.964
	c2.226,2.413,3.379,5.551,3.243,8.833c-0.133,3.281-1.536,6.314-3.953,8.537C324.218,191.148,321.26,192.303,318.167,192.303z
	 M318.162,171.572c-2.123,0-4.154,0.792-5.719,2.233c-1.657,1.525-2.62,3.607-2.711,5.86c-0.092,2.252,0.698,4.405,2.226,6.063
	c1.595,1.73,3.858,2.72,6.209,2.72c2.123,0,4.153-0.793,5.713-2.232c1.661-1.528,2.624-3.609,2.715-5.861
	c0.094-2.252-0.697-4.407-2.227-6.064C322.776,172.562,320.513,171.572,318.162,171.572z"/>
<path fill="#5454FF" d="M378.551,160.1c-3.427,0-6.723-1.443-9.043-3.965c-2.228-2.412-3.376-5.55-3.243-8.832
	c0.136-3.28,1.536-6.313,3.95-8.538c2.278-2.098,5.234-3.253,8.329-3.253c3.426,0,6.721,1.445,9.041,3.962
	c2.228,2.415,3.38,5.554,3.245,8.833c-0.134,3.282-1.54,6.314-3.955,8.54C384.6,158.943,381.643,160.1,378.551,160.1z
	 M378.544,139.367c-2.121,0-4.153,0.793-5.717,2.234c-1.657,1.525-2.62,3.608-2.711,5.86c-0.094,2.252,0.697,4.405,2.225,6.062
	c1.596,1.729,3.859,2.722,6.21,2.722c2.119,0,4.151-0.793,5.713-2.233c1.659-1.528,2.624-3.609,2.715-5.861
	c0.092-2.252-0.697-4.406-2.229-6.064C383.159,140.358,380.897,139.367,378.544,139.367z"/>
<path fill="#5454FF" d="M219.712,143.587c-2.615,0-5.131-1.103-6.903-3.026c-1.699-1.842-2.578-4.238-2.475-6.742
	c0.101-2.505,1.173-4.819,3.015-6.519c1.738-1.601,3.997-2.483,6.359-2.483c2.616,0,5.131,1.104,6.902,3.026
	c1.699,1.843,2.579,4.237,2.476,6.742c-0.103,2.505-1.174,4.82-3.019,6.518C224.331,142.705,222.073,143.587,219.712,143.587z
	 M219.708,128.673c-1.392,0-2.723,0.519-3.747,1.463c-1.085,1-1.717,2.364-1.777,3.841c-0.06,1.476,0.457,2.887,1.458,3.972
	c1.059,1.15,2.505,1.783,4.069,1.783c1.391,0,2.721-0.519,3.744-1.463c1.087-1.001,1.718-2.365,1.778-3.841
	c0.061-1.476-0.458-2.887-1.458-3.972C222.716,129.305,221.272,128.673,219.708,128.673z"/>
<path fill="#5454FF" d="M113.203,80.373c-1.763,1.931-4.273,3.044-6.889,3.058c-2.506,0.011-4.867-0.955-6.647-2.719
	c-1.781-1.764-2.768-4.115-2.78-6.623c-0.011-2.362,0.861-4.625,2.454-6.369c1.763-1.932,4.273-3.047,6.888-3.058
	c2.505-0.013,4.867,0.952,6.648,2.717c1.781,1.765,2.768,4.116,2.779,6.624C115.667,76.365,114.795,78.627,113.203,80.373z
	 M102.187,70.319c-0.938,1.028-1.452,2.361-1.445,3.754c0.006,1.477,0.588,2.86,1.638,3.9c1.049,1.04,2.44,1.608,3.917,1.601
	c1.564-0.007,3.006-0.647,4.061-1.802c0.937-1.028,1.451-2.36,1.444-3.751c-0.006-1.479-0.588-2.864-1.637-3.903
	c-1.05-1.04-2.441-1.608-3.918-1.602C104.682,68.524,103.241,69.164,102.187,70.319z"/>
<path fill="#231F20" d="M35.151,78.875c-1.764,1.931-4.274,3.046-6.889,3.059c-2.507,0.011-4.868-0.954-6.648-2.718
	c-1.781-1.764-2.769-4.116-2.78-6.623c-0.011-2.363,0.86-4.625,2.454-6.369c1.763-1.932,4.272-3.047,6.887-3.058
	c2.506-0.013,4.867,0.953,6.648,2.717c1.781,1.765,2.768,4.118,2.779,6.623C37.614,74.868,36.743,77.131,35.151,78.875z
	 M24.133,68.821c-0.938,1.028-1.451,2.361-1.444,3.754c0.005,1.476,0.588,2.862,1.637,3.901c1.05,1.04,2.441,1.609,3.918,1.601
	c1.563-0.007,3.006-0.646,4.061-1.802c0.938-1.027,1.451-2.359,1.444-3.752c-0.007-1.477-0.588-2.864-1.637-3.903
	c-1.05-1.04-2.441-1.608-3.919-1.602C26.629,67.027,25.188,67.667,24.133,68.821z"/>
<path fill="#5454FF" d="M63.105,136.555c-2.945,3.227-7.14,5.088-11.509,5.11c-4.188,0.019-8.133-1.593-11.108-4.542
	c-2.975-2.946-4.625-6.875-4.644-11.062c-0.018-3.95,1.438-7.728,4.099-10.643c2.947-3.229,7.141-5.089,11.508-5.109
	c4.188-0.02,8.134,1.593,11.109,4.541c2.975,2.948,4.625,6.878,4.642,11.065C67.22,129.863,65.766,133.643,63.105,136.555z
	 M42.79,118.017c-2.006,2.198-3.104,5.048-3.091,8.026c0.015,3.157,1.258,6.121,3.502,8.343c2.244,2.223,5.218,3.44,8.377,3.425
	c3.295-0.016,6.458-1.421,8.681-3.855c2.005-2.196,3.103-5.046,3.089-8.022c-0.013-3.161-1.257-6.123-3.501-8.346
	c-2.244-2.224-5.22-3.439-8.38-3.424C48.175,114.177,45.012,115.583,42.79,118.017z"/>
<path fill="#231F20" d="M163.005,202.698c-4.515,0-8.858-1.904-11.917-5.223c-2.932-3.183-4.45-7.316-4.273-11.642
	c0.177-4.324,2.026-8.32,5.208-11.252c3.001-2.765,6.9-4.287,10.978-4.287c4.516,0,8.859,1.903,11.916,5.223
	c2.933,3.182,4.451,7.316,4.275,11.641c-0.176,4.325-2.027,8.323-5.211,11.254C170.979,201.174,167.082,202.698,163.005,202.698z
	 M163,174.148c-3.107,0-6.078,1.162-8.366,3.269c-2.425,2.234-3.833,5.28-3.969,8.575c-0.134,3.295,1.022,6.445,3.257,8.872
	c2.332,2.528,5.642,3.981,9.083,3.981c3.106,0,6.077-1.161,8.364-3.27c2.426-2.234,3.836-5.278,3.97-8.573
	c0.135-3.297-1.022-6.447-3.259-8.874C169.751,175.599,166.441,174.148,163,174.148z"/>
<path d="M372.735,350.953c-12.89,0-23.371-10.483-23.371-23.37l0.212-52.859l-62.623,10.748l-0.179,38.403
	c0,9.56-7.79,17.35-17.364,17.35c-9.573,0-17.362-7.79-17.362-17.363l0.03-33.139c-0.318,0.05-0.662,0.107-1.031,0.173
	c-4.322,0.745-7.292,1.213-8.826,1.391c-1.69,0.196-4.261,0.458-7.048,0.458c-8.755,0-15.178-2.586-19.089-7.686
	c-5.024-6.549-5.638-17.075-1.825-31.285l53.42-202.843c0.287-1.089,1.25-1.864,2.375-1.912c0,0,0.781-0.036,2.25-0.036
	c13.63,0,84.392,2.943,138.888,61.05c29.659,31.621,40.825,69.278,44.971,95.298c4.487,28.167,2.012,48.59,1.903,49.446
	c-0.141,1.128-1.006,2.03-2.13,2.214l-59.835,9.927v60.664C396.101,340.47,385.62,350.953,372.735,350.953z M352.158,269.104
	c0.603,0,1.192,0.213,1.66,0.609c0.577,0.49,0.91,1.211,0.908,1.971l-0.223,55.909c0,10.043,8.178,18.221,18.231,18.221
	c10.05,0,18.228-8.178,18.228-18.231v-62.84c0-1.257,0.907-2.33,2.148-2.534l60.041-9.961c1.054-12.578,4.637-85.019-45.711-138.698
	c-53.248-56.778-122.393-59.432-135.289-59.426l-52.927,200.974c-3.38,12.596-3.064,21.621,0.936,26.836
	c2.887,3.763,7.937,5.672,15.011,5.672c2.521,0,4.892-0.242,6.456-0.423c1.422-0.166,4.376-0.632,8.545-1.352
	c2.761-0.476,4.185-0.608,4.244-0.614c0.724-0.059,1.433,0.176,1.967,0.662c0.533,0.488,0.837,1.178,0.836,1.9l-0.033,36.087
	c0,6.737,5.484,12.221,12.224,12.221c6.741,0,12.225-5.483,12.225-12.225l0.189-40.57c0.005-1.245,0.906-2.309,2.133-2.519
	l67.765-11.63C351.867,269.117,352.013,269.104,352.158,269.104z"/>
<path fill="#5454FF" d="M523.301,82.827l-2.612-2.833c1.982-1.824,3.13-4.309,3.241-6.999c0.107-2.69-0.837-5.26-2.658-7.24
	c-1.825-1.98-4.309-3.131-6.999-3.241c-2.699-0.103-5.262,0.836-7.24,2.659l-2.613-2.837c2.737-2.519,6.296-3.818,10.009-3.673
	c3.718,0.151,7.158,1.742,9.677,4.479c2.521,2.736,3.826,6.29,3.676,10.009C527.629,76.871,526.039,80.306,523.301,82.827z"/>
<path fill="#231F20" d="M180.338,102.438c-0.13,0-0.261-0.002-0.392-0.008c-2.504-0.102-4.819-1.173-6.519-3.018
	c-1.698-1.842-2.578-4.238-2.476-6.743c0.103-2.504,1.175-4.82,3.018-6.518l2.612,2.834c-1.086,1.002-1.718,2.366-1.778,3.842
	c-0.061,1.475,0.458,2.887,1.459,3.971c1.001,1.087,2.366,1.719,3.841,1.78c1.481,0.064,2.887-0.458,3.973-1.459l2.612,2.832
	C184.941,101.564,182.7,102.438,180.338,102.438z"/>
<path fill="#231F20" d="M525.938,172.414c-2.613,0-5.129-1.104-6.902-3.026c-1.697-1.843-2.578-4.238-2.476-6.742
	s1.175-4.82,3.017-6.518c1.739-1.601,3.997-2.483,6.357-2.483c2.618,0,5.134,1.103,6.904,3.025c1.699,1.843,2.578,4.237,2.478,6.742
	c-0.104,2.504-1.175,4.82-3.021,6.518C530.558,171.532,528.302,172.414,525.938,172.414z M525.934,157.5
	c-1.393,0-2.722,0.519-3.745,1.462c-1.085,1-1.718,2.366-1.777,3.839c-0.059,1.477,0.456,2.888,1.459,3.974
	c1.06,1.151,2.503,1.784,4.067,1.784c1.392,0,2.722-0.52,3.747-1.463c1.085-1,1.717-2.365,1.777-3.841
	c0.061-1.474-0.458-2.885-1.458-3.971C528.945,158.133,527.5,157.5,525.934,157.5z"/>
<path fill="#5454FF" d="M115.75,152.39c-4.232,0-8.451-1.698-11.537-5.046l2.835-2.612c4.417,4.792,11.914,5.098,16.708,0.683
	c2.324-2.139,3.674-5.057,3.803-8.212c0.128-3.155-0.98-6.174-3.121-8.497l2.834-2.613c2.84,3.081,4.309,7.082,4.138,11.266
	c-0.171,4.185-1.961,8.053-5.042,10.889C123.36,151.02,119.55,152.39,115.75,152.39z"/>
</svg>
